<svg xmlns="http://www.w3.org/2000/svg" width="820" height="420" viewBox="0 0 820 420" role="img" aria-labelledby="title desc">
<title id="title">調和振動子の第3固有関数</title>
<desc id="desc">第3固有関数V3を黒線で描き、3個の零点を座標軸上に示したグラフ。</desc>
<defs>
<marker id="arrow" markerWidth="8" markerHeight="8" refX="7" refY="4" orient="auto" markerUnits="strokeWidth">
  <path d="M0,0 L8,4 L0,8 Z" fill="#111111"/>
</marker>

</defs>
<style>
  text { font-family: "Times New Roman", "Noto Serif JP", serif; fill: #111111; }
  .axis { stroke: #111111; stroke-width: 2; fill: none; }
  .tick { stroke: #111111; stroke-width: 1.4; }
  .guide { stroke: #777777; stroke-width: 1.3; stroke-dasharray: 7 6; fill: none; }
  .curve { stroke: #111111; stroke-width: 3; fill: none; stroke-linecap: round; stroke-linejoin: round; }
  .curve-thin { stroke: #111111; stroke-width: 2.2; fill: none; stroke-linecap: round; stroke-linejoin: round; }
  .label { font-size: 19px; }
  .small { font-size: 16px; }
  .math { font-size: 21px; font-style: italic; }
  .point { fill: #ffffff; stroke: #111111; stroke-width: 2; }
  .solid-point { fill: #111111; }
  .note-box { fill: #ffffff; stroke: #777777; stroke-width: 1; }
</style>
<rect width="820" height="420" fill="#ffffff"/>
<line x1="78" y1="210" x2="760" y2="210" class="axis" marker-end="url(#arrow)"/>
<line x1="419" y1="365" x2="419" y2="55" class="axis" marker-end="url(#arrow)"/>
<line x1="94.23809523809526" y1="205" x2="94.23809523809526" y2="215" class="tick"/><text x="94.23809523809526" y="234" text-anchor="middle" class="small">−4</text>
<line x1="256.6190476190476" y1="205" x2="256.6190476190476" y2="215" class="tick"/><text x="256.6190476190476" y="234" text-anchor="middle" class="small">−2</text>
<line x1="419" y1="205" x2="419" y2="215" class="tick"/><text x="419" y="234" text-anchor="middle" class="small">0</text>
<line x1="581.3809523809524" y1="205" x2="581.3809523809524" y2="215" class="tick"/><text x="581.3809523809524" y="234" text-anchor="middle" class="small">2</text>
<line x1="743.7619047619047" y1="205" x2="743.7619047619047" y2="215" class="tick"/><text x="743.7619047619047" y="234" text-anchor="middle" class="small">4</text>
<path d="M 78.00 211.51 L 78.85 211.57 L 79.70 211.63 L 80.56 211.69 L 81.41 211.75 L 82.26 211.81 L 83.11 211.88 L 83.97 211.95 L 84.82 212.02 L 85.67 212.09 L 86.53 212.16 L 87.38 212.24 L 88.23 212.32 L 89.08 212.40 L 89.94 212.49 L 90.79 212.57 L 91.64 212.66 L 92.49 212.76 L 93.34 212.85 L 94.20 212.95 L 95.05 213.05 L 95.90 213.16 L 96.75 213.27 L 97.61 213.38 L 98.46 213.49 L 99.31 213.61 L 100.17 213.73 L 101.02 213.85 L 101.87 213.98 L 102.72 214.11 L 103.57 214.25 L 104.43 214.39 L 105.28 214.53 L 106.13 214.68 L 106.99 214.83 L 107.84 214.99 L 108.69 215.15 L 109.54 215.31 L 110.39 215.48 L 111.25 215.66 L 112.10 215.84 L 112.95 216.02 L 113.80 216.21 L 114.66 216.40 L 115.51 216.60 L 116.36 216.80 L 117.22 217.01 L 118.07 217.23 L 118.92 217.45 L 119.77 217.67 L 120.63 217.91 L 121.48 218.14 L 122.33 218.39 L 123.18 218.64 L 124.04 218.89 L 124.89 219.16 L 125.74 219.42 L 126.59 219.70 L 127.44 219.98 L 128.30 220.27 L 129.15 220.57 L 130.00 220.87 L 130.86 221.18 L 131.71 221.49 L 132.56 221.82 L 133.41 222.15 L 134.26 222.49 L 135.12 222.84 L 135.97 223.19 L 136.82 223.55 L 137.67 223.92 L 138.53 224.30 L 139.38 224.69 L 140.23 225.08 L 141.09 225.49 L 141.94 225.90 L 142.79 226.32 L 143.64 226.75 L 144.50 227.19 L 145.35 227.63 L 146.20 228.09 L 147.05 228.55 L 147.91 229.03 L 148.76 229.51 L 149.61 230.00 L 150.46 230.51 L 151.31 231.02 L 152.17 231.54 L 153.02 232.07 L 153.87 232.61 L 154.72 233.17 L 155.58 233.73 L 156.43 234.30 L 157.28 234.88 L 158.13 235.47 L 158.99 236.07 L 159.84 236.68 L 160.69 237.31 L 161.54 237.94 L 162.40 238.58 L 163.25 239.23 L 164.10 239.90 L 164.96 240.57 L 165.81 241.26 L 166.66 241.95 L 167.51 242.66 L 168.37 243.38 L 169.22 244.10 L 170.07 244.84 L 170.92 245.59 L 171.78 246.35 L 172.63 247.12 L 173.48 247.90 L 174.33 248.69 L 175.19 249.49 L 176.04 250.30 L 176.89 251.12 L 177.74 251.95 L 178.59 252.79 L 179.45 253.65 L 180.30 254.51 L 181.15 255.38 L 182.00 256.26 L 182.86 257.15 L 183.71 258.05 L 184.56 258.96 L 185.42 259.88 L 186.27 260.81 L 187.12 261.75 L 187.97 262.70 L 188.83 263.65 L 189.68 264.62 L 190.53 265.59 L 191.38 266.57 L 192.24 267.56 L 193.09 268.56 L 193.94 269.56 L 194.79 270.57 L 195.64 271.59 L 196.50 272.62 L 197.35 273.65 L 198.20 274.69 L 199.05 275.73 L 199.91 276.78 L 200.76 277.84 L 201.61 278.90 L 202.47 279.96 L 203.32 281.03 L 204.17 282.11 L 205.02 283.19 L 205.88 284.27 L 206.73 285.35 L 207.58 286.44 L 208.43 287.53 L 209.28 288.62 L 210.14 289.72 L 210.99 290.81 L 211.84 291.91 L 212.69 293.00 L 213.55 294.10 L 214.40 295.19 L 215.25 296.28 L 216.10 297.38 L 216.96 298.47 L 217.81 299.55 L 218.66 300.64 L 219.52 301.72 L 220.37 302.80 L 221.22 303.87 L 222.07 304.94 L 222.93 306.00 L 223.78 307.05 L 224.63 308.10 L 225.48 309.15 L 226.33 310.18 L 227.19 311.21 L 228.04 312.22 L 228.89 313.23 L 229.74 314.23 L 230.60 315.21 L 231.45 316.19 L 232.30 317.15 L 233.16 318.10 L 234.01 319.04 L 234.86 319.97 L 235.71 320.88 L 236.56 321.77 L 237.42 322.65 L 238.27 323.52 L 239.12 324.37 L 239.98 325.20 L 240.83 326.01 L 241.68 326.80 L 242.53 327.58 L 243.39 328.33 L 244.24 329.07 L 245.09 329.78 L 245.94 330.47 L 246.80 331.14 L 247.65 331.79 L 248.50 332.41 L 249.35 333.01 L 250.21 333.59 L 251.06 334.14 L 251.91 334.66 L 252.76 335.16 L 253.62 335.64 L 254.47 336.08 L 255.32 336.50 L 256.17 336.89 L 257.02 337.25 L 257.88 337.58 L 258.73 337.88 L 259.58 338.15 L 260.44 338.39 L 261.29 338.60 L 262.14 338.77 L 262.99 338.92 L 263.85 339.03 L 264.70 339.11 L 265.55 339.15 L 266.40 339.17 L 267.25 339.14 L 268.11 339.09 L 268.96 339.00 L 269.81 338.87 L 270.67 338.71 L 271.52 338.51 L 272.37 338.28 L 273.22 338.01 L 274.07 337.71 L 274.93 337.37 L 275.78 336.99 L 276.63 336.58 L 277.49 336.13 L 278.34 335.64 L 279.19 335.11 L 280.04 334.55 L 280.89 333.95 L 281.75 333.32 L 282.60 332.65 L 283.45 331.94 L 284.31 331.19 L 285.16 330.41 L 286.01 329.59 L 286.86 328.73 L 287.72 327.84 L 288.57 326.91 L 289.42 325.95 L 290.27 324.95 L 291.13 323.91 L 291.98 322.84 L 292.83 321.74 L 293.68 320.60 L 294.53 319.43 L 295.39 318.22 L 296.24 316.98 L 297.09 315.71 L 297.95 314.40 L 298.80 313.07 L 299.65 311.70 L 300.50 310.30 L 301.36 308.88 L 302.21 307.42 L 303.06 305.94 L 303.91 304.42 L 304.76 302.89 L 305.62 301.32 L 306.47 299.73 L 307.32 298.11 L 308.17 296.47 L 309.03 294.81 L 309.88 293.12 L 310.73 291.41 L 311.58 289.68 L 312.44 287.94 L 313.29 286.17 L 314.14 284.38 L 315.00 282.58 L 315.85 280.76 L 316.70 278.93 L 317.55 277.08 L 318.41 275.22 L 319.26 273.35 L 320.11 271.47 L 320.96 269.58 L 321.82 267.68 L 322.67 265.77 L 323.52 263.86 L 324.37 261.94 L 325.23 260.01 L 326.08 258.09 L 326.93 256.16 L 327.78 254.23 L 328.63 252.30 L 329.49 250.37 L 330.34 248.45 L 331.19 246.53 L 332.05 244.62 L 332.90 242.71 L 333.75 240.81 L 334.60 238.92 L 335.46 237.04 L 336.31 235.17 L 337.16 233.31 L 338.01 231.47 L 338.87 229.64 L 339.72 227.83 L 340.57 226.03 L 341.42 224.25 L 342.27 222.49 L 343.13 220.76 L 343.98 219.04 L 344.83 217.35 L 345.68 215.68 L 346.54 214.03 L 347.39 212.41 L 348.24 210.82 L 349.10 209.25 L 349.95 207.72 L 350.80 206.21 L 351.65 204.74 L 352.50 203.30 L 353.36 201.89 L 354.21 200.51 L 355.06 199.17 L 355.91 197.86 L 356.77 196.59 L 357.62 195.35 L 358.47 194.16 L 359.32 193.00 L 360.18 191.88 L 361.03 190.80 L 361.88 189.76 L 362.73 188.76 L 363.59 187.80 L 364.44 186.89 L 365.29 186.01 L 366.14 185.18 L 367.00 184.39 L 367.85 183.65 L 368.70 182.95 L 369.56 182.29 L 370.41 181.68 L 371.26 181.11 L 372.11 180.59 L 372.96 180.11 L 373.82 179.68 L 374.67 179.29 L 375.52 178.95 L 376.38 178.65 L 377.23 178.40 L 378.08 178.20 L 378.93 178.03 L 379.79 177.92 L 380.64 177.84 L 381.49 177.81 L 382.34 177.83 L 383.20 177.89 L 384.05 177.99 L 384.90 178.14 L 385.75 178.32 L 386.61 178.55 L 387.46 178.82 L 388.31 179.13 L 389.16 179.49 L 390.01 179.88 L 390.87 180.31 L 391.72 180.77 L 392.57 181.28 L 393.42 181.82 L 394.28 182.40 L 395.13 183.01 L 395.98 183.66 L 396.83 184.34 L 397.69 185.05 L 398.54 185.79 L 399.39 186.56 L 400.25 187.37 L 401.10 188.20 L 401.95 189.05 L 402.80 189.94 L 403.65 190.84 L 404.51 191.77 L 405.36 192.73 L 406.21 193.70 L 407.06 194.70 L 407.92 195.71 L 408.77 196.74 L 409.62 197.79 L 410.47 198.85 L 411.33 199.93 L 412.18 201.02 L 413.03 202.12 L 413.88 203.22 L 414.74 204.34 L 415.59 205.46 L 416.44 206.59 L 417.29 207.73 L 418.15 208.86 L 419.00 210.00 L 419.85 211.14 L 420.70 212.27 L 421.56 213.41 L 422.41 214.54 L 423.26 215.66 L 424.12 216.78 L 424.97 217.88 L 425.82 218.98 L 426.67 220.07 L 427.52 221.15 L 428.38 222.21 L 429.23 223.26 L 430.08 224.29 L 430.94 225.30 L 431.79 226.30 L 432.64 227.27 L 433.49 228.23 L 434.35 229.16 L 435.20 230.06 L 436.05 230.95 L 436.90 231.80 L 437.75 232.63 L 438.61 233.44 L 439.46 234.21 L 440.31 234.95 L 441.16 235.66 L 442.02 236.34 L 442.87 236.99 L 443.72 237.60 L 444.57 238.18 L 445.43 238.72 L 446.28 239.23 L 447.13 239.69 L 447.99 240.12 L 448.84 240.51 L 449.69 240.87 L 450.54 241.18 L 451.39 241.45 L 452.25 241.68 L 453.10 241.86 L 453.95 242.01 L 454.80 242.11 L 455.66 242.17 L 456.51 242.19 L 457.36 242.16 L 458.21 242.08 L 459.07 241.97 L 459.92 241.80 L 460.77 241.60 L 461.62 241.35 L 462.48 241.05 L 463.33 240.71 L 464.18 240.32 L 465.03 239.89 L 465.89 239.41 L 466.74 238.89 L 467.59 238.32 L 468.44 237.71 L 469.30 237.05 L 470.15 236.35 L 471.00 235.61 L 471.86 234.82 L 472.71 233.99 L 473.56 233.11 L 474.41 232.20 L 475.26 231.24 L 476.12 230.24 L 476.97 229.20 L 477.82 228.12 L 478.67 227.00 L 479.53 225.84 L 480.38 224.65 L 481.23 223.41 L 482.09 222.14 L 482.94 220.83 L 483.79 219.49 L 484.64 218.11 L 485.50 216.70 L 486.35 215.26 L 487.20 213.79 L 488.05 212.28 L 488.90 210.75 L 489.76 209.18 L 490.61 207.59 L 491.46 205.97 L 492.31 204.32 L 493.17 202.65 L 494.02 200.96 L 494.87 199.24 L 495.72 197.51 L 496.58 195.75 L 497.43 193.97 L 498.28 192.17 L 499.13 190.36 L 499.99 188.53 L 500.84 186.69 L 501.69 184.83 L 502.54 182.96 L 503.40 181.08 L 504.25 179.19 L 505.10 177.29 L 505.95 175.38 L 506.81 173.47 L 507.66 171.55 L 508.51 169.63 L 509.37 167.70 L 510.22 165.77 L 511.07 163.84 L 511.92 161.91 L 512.77 159.99 L 513.63 158.06 L 514.48 156.14 L 515.33 154.23 L 516.18 152.32 L 517.04 150.42 L 517.89 148.53 L 518.74 146.65 L 519.60 144.78 L 520.45 142.92 L 521.30 141.07 L 522.15 139.24 L 523.00 137.42 L 523.86 135.62 L 524.71 133.83 L 525.56 132.06 L 526.42 130.32 L 527.27 128.59 L 528.12 126.88 L 528.97 125.19 L 529.83 123.53 L 530.68 121.89 L 531.53 120.27 L 532.38 118.68 L 533.24 117.11 L 534.09 115.58 L 534.94 114.06 L 535.79 112.58 L 536.64 111.12 L 537.50 109.70 L 538.35 108.30 L 539.20 106.93 L 540.05 105.60 L 540.91 104.29 L 541.76 103.02 L 542.61 101.78 L 543.47 100.57 L 544.32 99.40 L 545.17 98.26 L 546.02 97.16 L 546.88 96.09 L 547.73 95.05 L 548.58 94.05 L 549.43 93.09 L 550.28 92.16 L 551.14 91.27 L 551.99 90.41 L 552.84 89.59 L 553.69 88.81 L 554.55 88.06 L 555.40 87.35 L 556.25 86.68 L 557.11 86.05 L 557.96 85.45 L 558.81 84.89 L 559.66 84.36 L 560.51 83.87 L 561.37 83.42 L 562.22 83.01 L 563.07 82.63 L 563.92 82.29 L 564.78 81.99 L 565.63 81.72 L 566.48 81.49 L 567.33 81.29 L 568.19 81.13 L 569.04 81.00 L 569.89 80.91 L 570.75 80.86 L 571.60 80.83 L 572.45 80.85 L 573.30 80.89 L 574.15 80.97 L 575.01 81.08 L 575.86 81.23 L 576.71 81.40 L 577.57 81.61 L 578.42 81.85 L 579.27 82.12 L 580.12 82.42 L 580.97 82.75 L 581.83 83.11 L 582.68 83.50 L 583.53 83.92 L 584.38 84.36 L 585.24 84.84 L 586.09 85.34 L 586.94 85.86 L 587.80 86.41 L 588.65 86.99 L 589.50 87.59 L 590.35 88.21 L 591.21 88.86 L 592.06 89.53 L 592.91 90.22 L 593.76 90.93 L 594.62 91.67 L 595.47 92.42 L 596.32 93.20 L 597.17 93.99 L 598.02 94.80 L 598.88 95.63 L 599.73 96.48 L 600.58 97.35 L 601.44 98.23 L 602.29 99.12 L 603.14 100.03 L 603.99 100.96 L 604.84 101.90 L 605.70 102.85 L 606.55 103.81 L 607.40 104.79 L 608.26 105.77 L 609.11 106.77 L 609.96 107.78 L 610.81 108.79 L 611.66 109.82 L 612.52 110.85 L 613.37 111.90 L 614.22 112.95 L 615.08 114.00 L 615.93 115.06 L 616.78 116.13 L 617.63 117.20 L 618.48 118.28 L 619.34 119.36 L 620.19 120.45 L 621.04 121.53 L 621.89 122.62 L 622.75 123.72 L 623.60 124.81 L 624.45 125.90 L 625.30 127.00 L 626.16 128.09 L 627.01 129.19 L 627.86 130.28 L 628.72 131.38 L 629.57 132.47 L 630.42 133.56 L 631.27 134.65 L 632.13 135.73 L 632.98 136.81 L 633.83 137.89 L 634.68 138.97 L 635.54 140.04 L 636.39 141.10 L 637.24 142.16 L 638.09 143.22 L 638.94 144.27 L 639.80 145.31 L 640.65 146.35 L 641.50 147.38 L 642.36 148.41 L 643.21 149.43 L 644.06 150.44 L 644.91 151.44 L 645.77 152.44 L 646.62 153.43 L 647.47 154.41 L 648.32 155.38 L 649.17 156.35 L 650.03 157.30 L 650.88 158.25 L 651.73 159.19 L 652.59 160.12 L 653.44 161.04 L 654.29 161.95 L 655.14 162.85 L 655.99 163.74 L 656.85 164.62 L 657.70 165.49 L 658.55 166.35 L 659.41 167.21 L 660.26 168.05 L 661.11 168.88 L 661.96 169.70 L 662.81 170.51 L 663.67 171.31 L 664.52 172.10 L 665.37 172.88 L 666.23 173.65 L 667.08 174.41 L 667.93 175.16 L 668.78 175.90 L 669.63 176.62 L 670.49 177.34 L 671.34 178.05 L 672.19 178.74 L 673.04 179.43 L 673.90 180.10 L 674.75 180.77 L 675.60 181.42 L 676.45 182.06 L 677.31 182.69 L 678.16 183.32 L 679.01 183.93 L 679.87 184.53 L 680.72 185.12 L 681.57 185.70 L 682.42 186.27 L 683.27 186.83 L 684.13 187.39 L 684.98 187.93 L 685.83 188.46 L 686.69 188.98 L 687.54 189.49 L 688.39 190.00 L 689.24 190.49 L 690.09 190.97 L 690.95 191.45 L 691.80 191.91 L 692.65 192.37 L 693.50 192.81 L 694.36 193.25 L 695.21 193.68 L 696.06 194.10 L 696.92 194.51 L 697.77 194.92 L 698.62 195.31 L 699.47 195.70 L 700.32 196.08 L 701.18 196.45 L 702.03 196.81 L 702.88 197.16 L 703.74 197.51 L 704.59 197.85 L 705.44 198.18 L 706.29 198.51 L 707.14 198.82 L 708.00 199.13 L 708.85 199.43 L 709.70 199.73 L 710.56 200.02 L 711.41 200.30 L 712.26 200.58 L 713.11 200.84 L 713.97 201.11 L 714.82 201.36 L 715.67 201.61 L 716.52 201.86 L 717.38 202.09 L 718.23 202.33 L 719.08 202.55 L 719.93 202.77 L 720.78 202.99 L 721.64 203.20 L 722.49 203.40 L 723.34 203.60 L 724.19 203.79 L 725.05 203.98 L 725.90 204.16 L 726.75 204.34 L 727.60 204.52 L 728.46 204.69 L 729.31 204.85 L 730.16 205.01 L 731.02 205.17 L 731.87 205.32 L 732.72 205.47 L 733.57 205.61 L 734.42 205.75 L 735.28 205.89 L 736.13 206.02 L 736.98 206.15 L 737.84 206.27 L 738.69 206.39 L 739.54 206.51 L 740.39 206.62 L 741.25 206.73 L 742.10 206.84 L 742.95 206.95 L 743.80 207.05 L 744.65 207.15 L 745.51 207.24 L 746.36 207.34 L 747.21 207.43 L 748.07 207.51 L 748.92 207.60 L 749.77 207.68 L 750.62 207.76 L 751.47 207.84 L 752.33 207.91 L 753.18 207.98 L 754.03 208.05 L 754.88 208.12 L 755.74 208.19 L 756.59 208.25 L 757.44 208.31 L 758.30 208.37 L 759.15 208.43 L 760.00 208.49" class="curve"/>
<circle cx="348.69" cy="210.00" r="4" class="point"/><text x="348.68698507369203" y="256" text-anchor="middle" class="small">−√3/2</text>
<circle cx="419.00" cy="210.00" r="4" class="point"/>
<circle cx="489.31" cy="210.00" r="4" class="point"/><text x="489.31301492630797" y="256" text-anchor="middle" class="small">√3/2</text>
<text x="758" y="200" class="math">x</text>
<text x="431" y="63" class="math">V₃</text>
<rect x="438" y="66" width="292" height="52" rx="2" class="note-box"/>
<text x="452" y="99" class="math">V₃(x)=C₃e⁻ˣ²⁄²H₃(√2x)</text>
<text x="100" y="92" class="small">|x|→∞ : V₃(x)→0</text>
</svg>
